<svg id="bedc1d80-5405-4108-ab69-3c41fe3263ef" data-name="Layer 1" xmlns="http://www.w3.org/2000/svg" viewBox="0 0 354.57 186.85"><g id="e254581b-33f4-44e2-8fba-44863a6708c4" data-name="Layer-1"><path d="M108.45,107.16c-26.86,0-51,3.7-67.14,9.52v35.07c16.18,5.83,40.28,9.52,67.14,9.52,23.46,0,44.67-2.82,60.65-7.41h0a74.73,74.73,0,0,0,16.62-7.33,132.24,132.24,0,0,1-6.33,12.73c-4.62,7.17-6.28,13.45-6.07,13.77s1.72-1.87,4.05-5.21c5.42-6.53,15.69-19,17.74-22.19,2.32-3.61,1-5.32,1-5.32l-1.64-2.93a9.64,9.64,0,0,0,.76-3.67c0-7.9-10.17-15-26.14-20.18v1c-16-4.6-37.19-7.42-60.65-7.42" transform="translate(0 0.04)" style="fill:#a52b00"/><path d="M17.18,139.68s-1.14,1.71.88,5.42c1.79,3.28,10.75,16.13,15.47,22.86,2,3.44,3.41,5.57,3.53,5.37s-1.28-6.73-5.31-14.1c-2.46-5.15-5.54-12.48-6.44-16.1a47.27,47.27,0,0,0,12.61,7.38V116.16c-11.3,4.77-18,10.72-18,17.18V134l-2.75,5.7" transform="translate(0 0.04)" style="fill:#a52b00"/><path d="M1.2,139.65s-2.71,1.41,0,6.47c2.4,4.46,15.46,22.81,22.37,32.44,2.8,4.76,4.76,7.75,5.05,7.57.46-.27-.33-8.1-5.73-18.14-4-8.84-8.79-22.2-6.93-23.28,0,0,5.41-4.78,14.33-3.18,78.13,38.2,162.36-.65,162.36-.65h0a17.09,17.09,0,0,1,6,4.34c1.75,1.5-5.71,14.48-11.46,22.93-7.45,9.41-9.69,17.43-9.27,17.81.27.23,2.87-2.5,6.65-6.91,9-8.68,25.93-25.26,29.23-29.44,3.75-4.74,1.18-6.76,1.18-6.76L198.18,125a2.13,2.13,0,0,0-.13-.46L204,116a3.23,3.23,0,0,0,.33-3,3,3,0,0,0-2.27-1.88L192,109.37c-.39-.8-.8-1.58-1.21-2.36L195,97.35a3.23,3.23,0,0,0-.24-3A3,3,0,0,0,192.2,93L182,93.34c-.53-.68-1.07-1.36-1.61-2l2.32-10.42a3.18,3.18,0,0,0-.8-2.91,2.88,2.88,0,0,0-2.79-.83l-9.93,2.44c-.65-.57-1.3-1.13-2-1.68l.36-10.63a3.11,3.11,0,0,0-1.32-2.69,2.85,2.85,0,0,0-2.9-.25l-9.26,4.4c-.75-.43-1.5-.85-2.26-1.26L150.19,57a3.11,3.11,0,0,0-1.81-2.38,2.88,2.88,0,0,0-2.88.35l-8.26,6.2c-.81-.27-1.63-.53-2.45-.78l-3.57-9.93a3,3,0,0,0-2.21-2,2.93,2.93,0,0,0-2.76.93l-7,7.78c-.84-.1-1.68-.19-2.53-.26l-5.37-9a2.92,2.92,0,0,0-5.07,0L101,57c-.85.07-1.69.16-2.53.26l-7-7.78a2.93,2.93,0,0,0-2.76-.93,3,3,0,0,0-2.21,2L83,60.43q-1.24.38-2.46.78L72.24,55a2.88,2.88,0,0,0-2.88-.35A3.08,3.08,0,0,0,67.56,57L65.92,67.51c-.76.41-1.51.84-2.25,1.26l-9.27-4.4a2.83,2.83,0,0,0-2.89.25,3.11,3.11,0,0,0-1.32,2.69l.35,10.63-2,1.68-9.82-2.46a2.88,2.88,0,0,0-2.79.83,3.18,3.18,0,0,0-.8,2.91l2.34,10.36c-.54.66-1.08,1.35-1.61,2l-10.19-.37a2.93,2.93,0,0,0-2.58,1.38,3.23,3.23,0,0,0-.24,3l4.22,9.66c-.41.78-.81,1.56-1.2,2.36l-10,1.7a3,3,0,0,0-2.27,1.88,3.23,3.23,0,0,0,.33,3l5.94,8.6-.51,1.78L1.2,139.65" transform="translate(0 0.04)" style="fill:#f74c00"/><path d="M64.08,164.26v-6.1c1.92-2.64,19.93-26.59,42.44,3.1l-27.58,2.56.49.44Z" transform="translate(0 0.04)"/><path d="M190,141.92c31-16.25,32.15-29.7,32.15-29.7,34.45-25.06,5-39.23,5-39.23.42,16-9,25.12-9,25.12l-.86-28.75c-31.95,22.56-5.25,43.8-5.25,43.8-3.85,9.53-26.6,18.39-26.6,18.39Z" transform="translate(0 0.04)" style="fill:#f74c00"/><path d="M92.93,119.4c7.21,11.67,0,18.43,0,18.43-6,8.6-16.84,0-16.84,0-6.61-6.14,0-18.43,0-18.43,8.42-9.22,16.84,0,16.84,0" transform="translate(0 0.04)"/><path d="M83.18,122.82c0-3.59,2.12-6.5,4.73-6.5s4.72,2.91,4.72,6.5-2.11,6.49-4.72,6.49-4.73-2.9-4.73-6.49" transform="translate(0 0.04)" style="fill:#fff"/><path d="M130.5,116.88c13.86,21.52-6.52,25.45-6.52,25.45-16-.94-11.86-17.57-11.86-17.57,3.94-14.27,18.38-7.88,18.38-7.88" transform="translate(0 0.04)"/><path d="M123.25,123.05c0-3.7,2.18-6.7,4.87-6.7s4.87,3,4.87,6.7-2.18,6.7-4.87,6.7-4.87-3-4.87-6.7" transform="translate(0 0.04)" style="fill:#fff"/><path d="M29.4,135c2.33,23.83,31.09,35,31.09,35,27.21,31,45.09,9.54,45.09,9.54a33.67,33.67,0,0,1-27.92-13.75c20.14-5.32,27.65-1,27.65-1-24.1-35-41.11-3.93-41.11-3.93l-5.26-1.24C40.19,147,37.17,135,37.17,135Z" transform="translate(0 0.04)" style="fill:#f74c00"/></g><rect id="a880be96-a13d-4775-abea-ec931707276b" data-name="text bg" x="177.84" y="32.46" width="175.87" height="39.85" transform="translate(0.45 107.03) rotate(-22.78)" style="fill:#0f0e1f"/><g id="e9c8913a-dfbb-4964-923c-546405897113" data-name="text" style="isolation:isolate"><g style="isolation:isolate"><path d="M195.74,71.31c2.64-1.11,4.9-1.23,6.79-.38s3.42,2.66,4.58,5.42l.82,2c1.16,2.76,1.36,5.13.58,7.1A8.43,8.43,0,0,1,203.57,90l-4.22,1.77a2.23,2.23,0,0,1-1.54.22,2.07,2.07,0,0,1-.95-1.21l-6.38-15.18a2.11,2.11,0,0,1-.19-1.53,2.16,2.16,0,0,1,1.23-.94Zm6.94,17a6.4,6.4,0,0,0,3.86-3.6q.84-2.33-.59-5.73l-.71-1.68c-1-2.29-2.15-3.81-3.58-4.54s-3.24-.65-5.43.27l-3.85,1.62L198.8,90Z" transform="translate(0 0.04)" style="fill:#fffffd"/><path d="M219.15,61.76a1.13,1.13,0,0,1,.41.53,1.09,1.09,0,0,1,.09.65.62.62,0,0,1-.43.45l-8.94,3.76,2.77,6.61,8.42-3.54a.63.63,0,0,1,.6,0,1,1,0,0,1,.4.51,1.06,1.06,0,0,1,.09.64.62.62,0,0,1-.4.45l-8.42,3.54,3,7.1,9.13-3.83a.62.62,0,0,1,.62,0,1,1,0,0,1,.4.51,1.09,1.09,0,0,1,.1.67.62.62,0,0,1-.43.45l-9.28,3.9a2.14,2.14,0,0,1-1.53.21,2,2,0,0,1-.95-1.2L208.4,68a2,2,0,0,1-.19-1.52,2.13,2.13,0,0,1,1.22-1l9.1-3.82A.62.62,0,0,1,219.15,61.76Z" transform="translate(0 0.04)" style="fill:#fffffd"/><path d="M235,55.09a1.21,1.21,0,0,1,.41.54,1.14,1.14,0,0,1,.09.64.64.64,0,0,1-.43.46l-8.94,3.76,2.77,6.61,8.42-3.54a.6.6,0,0,1,.6,0,1.1,1.1,0,0,1,.4.51,1.13,1.13,0,0,1,.08.64.62.62,0,0,1-.4.45l-8.41,3.53,3,7.11L241.72,72a.62.62,0,0,1,.62,0,1.16,1.16,0,0,1,.4.51,1.18,1.18,0,0,1,.1.67.65.65,0,0,1-.43.46l-9.28,3.9a2.14,2.14,0,0,1-1.53.21,2,2,0,0,1-1-1.21l-6.37-15.18a2,2,0,0,1-.2-1.52,2.13,2.13,0,0,1,1.22-1l9.11-3.82A.64.64,0,0,1,235,55.09Z" transform="translate(0 0.04)" style="fill:#fffffd"/><path d="M245.7,50.33a7.32,7.32,0,0,1,5.28-.55,5.55,5.55,0,0,1,3.19,3.32l.18.42a5.64,5.64,0,0,1,.1,4.68,7.25,7.25,0,0,1-4.07,3.43l-4.32,1.82,2.81,6.69a.73.73,0,0,1,0,.72,1.34,1.34,0,0,1-.61.47,1.32,1.32,0,0,1-.73.09.72.72,0,0,1-.54-.48l-6.82-16.23a2.06,2.06,0,0,1-.19-1.53,2.16,2.16,0,0,1,1.22-.94Zm3.74,9.72a5.53,5.53,0,0,0,3.1-2.47,4,4,0,0,0-.13-3.31l-.14-.34a3.88,3.88,0,0,0-2.2-2.33,5.17,5.17,0,0,0-3.72.43L242,53.85l3.32,7.92Z" transform="translate(0 0.04)" style="fill:#fffffd"/><path d="M261.8,43.57a7.62,7.62,0,0,1,4.91-.73,4.53,4.53,0,0,1,2.88,2.89l.18.42a5.42,5.42,0,0,1,.35,1.28,3.74,3.74,0,0,1-.06,1.33,3.9,3.9,0,0,1-.58,1.29,5.16,5.16,0,0,1-1.19,1.19,5.45,5.45,0,0,1,3.43.07A4.38,4.38,0,0,1,274,53.89l.22.52a5.23,5.23,0,0,1,.13,4.25c-.57,1.28-1.86,2.34-3.89,3.19L265,64.17a2.18,2.18,0,0,1-1.53.21,2,2,0,0,1-.95-1.21L256.13,48a2.05,2.05,0,0,1-.19-1.53,2.16,2.16,0,0,1,1.22-.94Zm3.13,8.19a6.15,6.15,0,0,0,2.83-2,2.85,2.85,0,0,0,.05-2.8l-.14-.34a2.87,2.87,0,0,0-1.94-1.86,6.07,6.07,0,0,0-3.63.65L258,47.12l2.69,6.42Zm4.35,8.66a6.14,6.14,0,0,0,3-2.18,3.35,3.35,0,0,0,0-3.13l-.19-.45a4.33,4.33,0,0,0-.85-1.35,2.57,2.57,0,0,0-1.29-.71,4.92,4.92,0,0,0-1.8,0,11.38,11.38,0,0,0-2.43.76l-4.3,1.81,3.06,7.29Z" transform="translate(0 0.04)" style="fill:#fffffd"/><path d="M278.41,36.47a1.23,1.23,0,0,1,1.51.36l13.55,14.05a.87.87,0,0,1,.29.73,1,1,0,0,1-.35.65,1.44,1.44,0,0,1-.73.36.8.8,0,0,1-.74-.33l-4.16-4.39-7.87,3.31.21,6.08a.83.83,0,0,1-.28.72,1.33,1.33,0,0,1-.75.27,1,1,0,0,1-.69-.21.91.91,0,0,1-.28-.71l-.53-19.55a1.43,1.43,0,0,1,.2-.86A1.49,1.49,0,0,1,278.41,36.47Zm.94,2.29q.11,1.07.18,2.13c.05.71.08,1.49.09,2.35l.21,6.09,6.69-2.81-4.14-4.43c-.59-.6-1.12-1.18-1.62-1.73S279.79,39.28,279.35,38.76Z" transform="translate(0 0.04)" style="fill:#fffffd"/><path d="M290.4,31.44a1.36,1.36,0,0,1,.76-.11.75.75,0,0,1,.54.49l3.77,9,5.19-13.35a.84.84,0,0,1,.55-.54,1,1,0,0,1,.71,0,1.16,1.16,0,0,1,.57.47.78.78,0,0,1,0,.73l-3.79,9.49,11.09,6.11a1,1,0,0,1,.51.6,1.08,1.08,0,0,1-.13.75,1.06,1.06,0,0,1-.58.49,1,1,0,0,1-.81-.12l-10.86-6-1.49,3.71,2.51,6a.7.7,0,0,1,0,.72,1.3,1.3,0,0,1-.6.47,1.28,1.28,0,0,1-.74.1.75.75,0,0,1-.54-.49l-7.25-17.28a.7.7,0,0,1,0-.72A1.21,1.21,0,0,1,290.4,31.44Z" transform="translate(0 0.04)" style="fill:#fffffd"/><path d="M311.67,22.29a12.62,12.62,0,0,1,3-.88,8.64,8.64,0,0,1,2.57-.06,1,1,0,0,1,.66.36.87.87,0,0,1,.16.72.84.84,0,0,1-1,.81,7.9,7.9,0,0,0-2.21.07,10.17,10.17,0,0,0-2.41.7,6.29,6.29,0,0,0-1.64,1,4.69,4.69,0,0,0-1.09,1.21,3.12,3.12,0,0,0-.47,1.35,2.78,2.78,0,0,0,.2,1.37l.14.34a3.43,3.43,0,0,0,.71,1.09,2.38,2.38,0,0,0,1.1.59,5.48,5.48,0,0,0,1.64.13,17.26,17.26,0,0,0,2.31-.31,23.47,23.47,0,0,1,3.37-.41,7.38,7.38,0,0,1,2.38.26,3.82,3.82,0,0,1,1.62,1,5.82,5.82,0,0,1,1.09,1.75l.2.47a5.13,5.13,0,0,1,.41,2.25,4.75,4.75,0,0,1-.61,2.12,6.89,6.89,0,0,1-1.62,1.89,10.09,10.09,0,0,1-2.55,1.5,12.25,12.25,0,0,1-3.44.9,10.9,10.9,0,0,1-3.15-.08.87.87,0,0,1-.66-.4,1.15,1.15,0,0,1-.15-.77,1,1,0,0,1,.35-.64,1,1,0,0,1,.72-.15,11.31,11.31,0,0,0,2.79.11A9.2,9.2,0,0,0,319,39.8a5.72,5.72,0,0,0,2.9-2.29,3,3,0,0,0,.25-2.79l-.17-.39a3.71,3.71,0,0,0-.77-1.22,2.37,2.37,0,0,0-1.18-.63,5.86,5.86,0,0,0-1.8-.11,23.68,23.68,0,0,0-2.68.37,20.38,20.38,0,0,1-2.82.35,6.8,6.8,0,0,1-2.19-.21,4,4,0,0,1-1.64-.93,5.19,5.19,0,0,1-1.16-1.79l-.19-.45a4.65,4.65,0,0,1-.38-2.15,4.74,4.74,0,0,1,.62-2,6.43,6.43,0,0,1,1.54-1.8A9,9,0,0,1,311.67,22.29Z" transform="translate(0 0.04)" style="fill:#fffffd"/><path d="M322.71,17.87a1.4,1.4,0,0,1,.77-.11.73.73,0,0,1,.56.48l4.39,10.46q1.32,3.12,3.07,4.08a4.93,4.93,0,0,0,4.36-.13,4.91,4.91,0,0,0,3.14-3,7.83,7.83,0,0,0-.76-5.05l-4.39-10.46a.72.72,0,0,1,0-.73,1.43,1.43,0,0,1,.62-.48,1.36,1.36,0,0,1,.74-.09.72.72,0,0,1,.54.48l4.38,10.44a14.07,14.07,0,0,1,1.08,3.76,6.5,6.5,0,0,1-.25,3,5.34,5.34,0,0,1-1.56,2.27,11.54,11.54,0,0,1-6,2.53,5.41,5.41,0,0,1-2.72-.47,6.7,6.7,0,0,1-2.29-1.9,14.59,14.59,0,0,1-1.92-3.4L322.1,19.05a.7.7,0,0,1,0-.72A1.21,1.21,0,0,1,322.71,17.87Z" transform="translate(0 0.04)" style="fill:#fffffd"/></g></g></svg>