<svg id="Layer_1" data-name="Layer 1" xmlns="http://www.w3.org/2000/svg" viewBox="0 0 354.56 186.76"><g id="Layer-1"><path d="M154.73,140c-26.86,0-51,3.7-67.14,9.52v35.07c16.18,5.83,40.28,9.52,67.14,9.52,23.46,0,44.67-2.82,60.65-7.41v0A75.06,75.06,0,0,0,232,179.37a130.85,130.85,0,0,1-6.33,12.73c-4.62,7.17-6.28,13.45-6.07,13.77s1.72-1.87,4.05-5.21c5.42-6.53,15.69-19,17.74-22.19,2.32-3.61,1-5.32,1-5.32l-1.64-2.93a9.69,9.69,0,0,0,.76-3.67c0-7.9-10.17-15-26.14-20.18v1c-16-4.6-37.19-7.42-60.65-7.42" transform="translate(-46.28 -32.84)" style="fill:#a52b00"/><path d="M63.46,172.52s-1.14,1.71.88,5.42c1.79,3.28,10.75,16.13,15.47,22.86,2,3.44,3.41,5.57,3.53,5.37s-1.28-6.73-5.31-14.1c-2.46-5.15-5.54-12.48-6.44-16.1a47.23,47.23,0,0,0,12.61,7.38V149c-11.3,4.77-18,10.72-18,17.18,0,.22,0,.43,0,.65l-2.75,5.7" transform="translate(-46.28 -32.84)" style="fill:#a52b00"/><path d="M47.48,172.49s-2.71,1.41,0,6.47c2.4,4.46,15.46,22.81,22.37,32.44,2.8,4.76,4.76,7.75,5.05,7.57.46-.27-.33-8.1-5.73-18.14-4-8.84-8.79-22.2-6.93-23.28,0,0,5.41-4.78,14.33-3.18,78.13,38.2,162.36-.65,162.36-.65h0a17,17,0,0,1,6,4.34c1.75,1.5-5.71,14.48-11.46,22.93-7.45,9.41-9.69,17.43-9.27,17.81.27.23,2.87-2.5,6.65-6.91,9-8.68,25.93-25.26,29.23-29.44,3.75-4.74,1.18-6.76,1.18-6.76l-16.8-17.84c0-.15-.09-.3-.13-.46l5.94-8.6a3.22,3.22,0,0,0,.33-3,3,3,0,0,0-2.27-1.88l-10.05-1.7c-.39-.8-.8-1.58-1.21-2.36l4.23-9.66a3.24,3.24,0,0,0-.24-3,3,3,0,0,0-2.58-1.38l-10.19.37c-.53-.68-1.07-1.36-1.61-2L229,113.76a3.19,3.19,0,0,0-.8-2.91,2.89,2.89,0,0,0-2.79-.83l-9.93,2.44c-.65-.57-1.3-1.13-2-1.68l.36-10.63a3.11,3.11,0,0,0-1.32-2.69,2.86,2.86,0,0,0-2.9-.25l-9.26,4.4c-.75-.43-1.5-.85-2.26-1.26l-1.63-10.47a3.11,3.11,0,0,0-1.81-2.38,2.88,2.88,0,0,0-2.88.35l-8.26,6.2c-.81-.27-1.63-.53-2.45-.78l-3.57-9.93a3,3,0,0,0-2.21-2,2.94,2.94,0,0,0-2.76.93l-6.95,7.78c-.84-.1-1.68-.19-2.53-.26l-5.37-9a2.92,2.92,0,0,0-5.07,0l-5.36,9c-.85.07-1.69.16-2.53.26l-6.95-7.78a2.94,2.94,0,0,0-2.76-.93,3,3,0,0,0-2.21,2l-3.56,9.93q-1.25.38-2.46.78l-8.26-6.2a2.88,2.88,0,0,0-2.88-.35,3.1,3.1,0,0,0-1.8,2.38l-1.64,10.47c-.76.41-1.51.84-2.25,1.26l-9.27-4.4a2.84,2.84,0,0,0-2.89.25,3.11,3.11,0,0,0-1.32,2.69l.35,10.63c-.66.55-1.31,1.11-2,1.68L85,110a2.88,2.88,0,0,0-2.79.83,3.16,3.16,0,0,0-.8,2.91l2.34,10.36c-.54.66-1.08,1.35-1.61,2l-10.19-.37a2.93,2.93,0,0,0-2.58,1.38,3.21,3.21,0,0,0-.24,3l4.22,9.66c-.41.78-.81,1.56-1.2,2.36l-10,1.7a3,3,0,0,0-2.27,1.88,3.22,3.22,0,0,0,.33,3l5.94,8.6-.51,1.78L47.48,172.49" transform="translate(-46.28 -32.84)" style="fill:#f74c00"/><path d="M110.36,197.1V191c1.92-2.64,19.93-26.59,42.44,3.1l-27.58,2.56.49.44Z" transform="translate(-46.28 -32.84)"/><path d="M236.27,174.76c31-16.25,32.15-29.7,32.15-29.7,34.45-25.06,5-39.23,5-39.23.42,16-9.05,25.12-9.05,25.12l-.86-28.75c-31.95,22.56-5.25,43.8-5.25,43.8-3.85,9.53-26.6,18.39-26.6,18.39Z" transform="translate(-46.28 -32.84)" style="fill:#f74c00"/><path d="M139.21,152.24c7.21,11.67,0,18.43,0,18.43-6,8.6-16.84,0-16.84,0-6.61-6.14,0-18.43,0-18.43,8.42-9.22,16.84,0,16.84,0" transform="translate(-46.28 -32.84)"/><path d="M129.46,155.66c0-3.59,2.12-6.5,4.73-6.5s4.72,2.91,4.72,6.5-2.11,6.49-4.72,6.49-4.73-2.9-4.73-6.49" transform="translate(-46.28 -32.84)" style="fill:#fff"/><path d="M176.78,149.72c13.86,21.52-6.52,25.45-6.52,25.45-16-.94-11.86-17.57-11.86-17.57,3.94-14.27,18.38-7.88,18.38-7.88" transform="translate(-46.28 -32.84)"/><path d="M169.53,155.89c0-3.7,2.18-6.7,4.87-6.7s4.87,3,4.87,6.7-2.18,6.7-4.87,6.7-4.87-3-4.87-6.7" transform="translate(-46.28 -32.84)" style="fill:#fff"/><path d="M75.68,167.88c2.33,23.83,31.09,35,31.09,35,27.21,31,45.09,9.54,45.09,9.54a33.66,33.66,0,0,1-27.92-13.75c20.14-5.32,27.65-1,27.65-1-24.1-34.95-41.11-3.93-41.11-3.93l-5.26-1.24c-18.75-12.62-21.77-24.62-21.77-24.62Z" transform="translate(-46.28 -32.84)" style="fill:#f74c00"/></g><rect id="text_bg" data-name="text bg" x="224.12" y="65.32" width="175.87" height="39.85" transform="translate(-54.95 94.61) rotate(-22.78)" style="fill:#0f0e1f"/><text id="text" transform="translate(195.22 93.59) rotate(-22.78)" style="font-size:28.44590187072754px;fill:#fffffd;font-family:NanumSquareRoundR, NanumSquareRound">DEEPBA<tspan x="108.18" y="0" style="letter-spacing:-0.02001469104714445em">K</tspan><tspan x="126.16" y="0">SU</tspan></text></svg>